<svg id="Layer_1" data-name="Layer 1" xmlns="http://www.w3.org/2000/svg" viewBox="0 0 1282.6 1524.2"><path d="M341.11,1007.8q-8.79-8.79,0-17.57,17.56-17.58,43.92-13.18t30.75,8.78q30.75,13.18,68.08,59.3t59.3,63.69q105.42,87.86,215.23,13.18,8.79-30.75,28.55-52.71t37.34-30.75q17.57-8.79,61.5-26.35-145-13.19-235-50.52T508,867.23q-70.27-79.07-85.66-206.44T442.13,428A386.77,386.77,0,0,1,516.8,309.39Q481.66,199.58,530,59q140.57,8.79,254.76,96.64,219.63-57.11,456.82-4.39,30.75-22,94.44-54.91T1496.33,59q17.57,48.31,24.16,114.21t-6.59,123q101,105.42,105.42,281.12,0,140.55-48.32,232.8T1399.69,963.86q-83.46,39.54-219.62,48.32,61.5,30.75,90,63.69t37.34,103.23v138.36l4.39,134a154.8,154.8,0,0,0,30.75,37.34q17.57,15.38,30.74,22t8.79,19.77q-4.39,13.18-35.14,13.18-74.68,0-118.6-52.71-13.17-22-13.18-52.71V1227.42q0-35.14-17.57-50.52t-35.14-19.76v276.72q0,74.67,17.57,96.64t22,43.92q4.39,4.39-6.59,6.59t-37.34-6.59q-57.1-13.17-79.06-59.3t-22-98.83V1144H1000V1416.3a241.4,241.4,0,0,1-22,101q-30.75,61.5-114.21,65.89-13.17-4.39-13.17-8.78Q855,1570,877,1530.5q4.39-8.77,11-35.14t6.59-61.49V1157.14q-17.56,4.39-32.94,19.77t-15.38,50.51v210.84q0,30.75-13.17,52.71-39.54,52.71-118.6,52.71-30.75,0-35.14-13.17-4.4-8.79,2.2-15.38t19.77-15.37q13.17-8.79,17.57-13.18,17.57-13.18,26.35-35.14,13.18-17.57,6.59-92.24t-2.2-96.64Q635.4,1302.1,516.81,1223q-35.14-35.15-70.28-101-26.36-48.32-105.42-114.21Z" transform="translate(-336.72 -59.01)"/></svg>