<svg id="Layer_1" data-name="Layer 1" xmlns="http://www.w3.org/2000/svg" viewBox="0 0 404.57 552.39"><defs><style>.cls-1{fill:#fff;}.cls-2{fill:none;}.cls-3{fill:#e84336;}.cls-4{fill:#517bbd;}.cls-5{fill:#fbbc0a;}.cls-6{fill:#31a853;}</style></defs><path class="cls-1" d="M224.44,161c34,0,130,0,164,0,17.44,0,29,11.66,29.06,29.3q.14,58,.07,116c0,18.78-11.51,30.2-30.33,30.21-44.17,0-150.35,0-194.53-.14-4.35,0-7,1.31-9.41,4.9-6.6,9.81-13.57,19.38-20.41,29-4,5.69-7.72,5.82-11.73.24-7.2-10-14.14-20.21-21.54-30.07a10.36,10.36,0,0,0-6.73-3.81c-18.42-1-29-11.59-29.08-29.92q-.19-57-.09-114C93.79,171.39,104.4,161,125.92,161Q175.18,160.91,224.44,161Z" transform="translate(-13.03 -18.01)"/><path class="cls-2" d="M111.81,72.94q23.75,0,47.48,0c15.82,0,31.64,0,47.47,0a18.65,18.65,0,0,0,5.88-.72c4.94-1.72,8-7.1,7.11-11.84-1.16-5.94-5.31-9.15-12.46-9.16q-48-.08-95.94,0c-7.73,0-12.24,4.15-12.19,10.8C99.21,68.88,103.9,72.94,111.81,72.94Z" transform="translate(-13.03 -18.01)"/><path class="cls-1" d="M285.22,356.25v12.63h0c.12,37.87.17,105.7.19,121a3.12,3.12,0,0,1-3.12,3.12c-25.26,0-196.47-.07-244.77.09-4.59,0-5.66-1.55-5.49-5.77.29-7.32.07-200.35.07-289.52,0-28.67.11-57.34-.08-86,0-4.83,1.5-6.42,6.28-6.21,7.65.34,168.05.1,240.57.11h2.39a4.06,4.06,0,0,1,4.07,4.18c0,.71,0,1.39,0,2,0,2.12.1,31.67.1,31.67h20.1s.48-53.91-.29-79.39c-.69-22.45-13.17-38.38-33.4-43.37-8.3-2.05-17.15-2.55-25.76-2.6q-61.51-.39-123-.08c-22.16.08-44.35-.09-66.47,1.05C32.29,20.41,15.43,37.11,14.1,61.49c-1.23,22.77-1,45.64-1,68.46q-.12,172,0,344c0,17.82-.23,35.69,1,53.45,1.41,20.75,13.64,35.42,32.67,40.11A104.8,104.8,0,0,0,71,570.21q60.26.39,120.54.08c23.83-.09,47.7.24,71.47-1.13,19.24-1.11,33.32-11.27,39.35-30.27a68.63,68.63,0,0,0,3-19.63c.33-29.5.19-59,.2-88.51,0-20.62-.1-41.25.05-61.87h0V356.25Zm-173.87-305q48-.1,95.94,0c7.15,0,11.3,3.22,12.46,9.16.92,4.74-2.17,10.12-7.11,11.84a18.65,18.65,0,0,1-5.88.72c-15.83.06-31.65,0-47.47,0s-31.65,0-47.48,0c-7.91,0-12.6-4.06-12.65-10.9C99.11,55.39,103.62,51.26,111.35,51.24Z" transform="translate(-13.03 -18.01)"/><path class="cls-3" d="M186.17,218.63l-30.8,70.51c-1.21,2.86-3.19,4.29-5.06,4.29s-3.85-1.43-5.06-4.29l-30.69-70.51a7.93,7.93,0,0,1-.77-3.3c0-2.75,2-4.4,5.83-4.4H136a5.36,5.36,0,0,1,5.17,3.52l9.24,24.42,9.24-24.42a5.36,5.36,0,0,1,5.17-3.52h16.28c3.85,0,5.83,1.65,5.83,4.4A7.93,7.93,0,0,1,186.17,218.63Z" transform="translate(-13.03 -18.01)"/><path class="cls-4" d="M225.88,293.43A42.13,42.13,0,1,1,268,251.3,42.2,42.2,0,0,1,225.88,293.43Zm0-58.19c-8,0-14.63,7.26-14.63,16.06s6.6,16.06,14.63,16.06,14.63-7.26,14.63-16.06S233.91,235.24,225.88,235.24Z" transform="translate(-13.03 -18.01)"/><path class="cls-5" d="M321.47,231.83h-9.9v54.34c0,3.63-1.87,5.5-5.5,5.5h-16.5c-3.63,0-5.5-1.87-5.5-5.5V231.83h-9.9c-3.63,0-5.5-1.87-5.5-5.5v-9.9c0-3.63,1.87-5.5,5.5-5.5h47.3c3.63,0,5.5,1.87,5.5,5.5v9.9C327,230,325.1,231.83,321.47,231.83Z" transform="translate(-13.03 -18.01)"/><path class="cls-6" d="M385.27,291.67H339.62c-3.63,0-5.5-1.87-5.5-5.5V216.43c0-3.63,1.87-5.5,5.5-5.5h45.65c3.63,0,5.5,1.87,5.5,5.5v9.9c0,3.63-1.87,5.5-5.5,5.5H361.62v7.48h23.65c3.63,0,5.5,1.87,5.5,5.5v5.39c0,3.63-1.87,5.5-5.5,5.5H361.62v15.07h23.65c3.63,0,5.5,1.87,5.5,5.5v9.9C390.77,289.8,388.9,291.67,385.27,291.67Z" transform="translate(-13.03 -18.01)"/></svg>